<svg xmlns="http://www.w3.org/2000/svg" viewBox="0 0 772.36 184.69"><defs><style>.cls-1{font-size:109.7px;fill:#150422;font-family:Poppins-SemiBold, Poppins;font-weight:600;letter-spacing:-0.02em;}.cls-2,.cls-3{fill:#b44cf9;}.cls-2{letter-spacing:-0.02em;}</style></defs><title>ApexPrime-logo</title><g id="Layer_2" data-name="Layer 2"><g id="Layer_1-2" data-name="Layer 1"><text class="cls-1" transform="translate(190.07 119.63)">Apex<tspan class="cls-2" x="270.19" y="0">Prime</tspan></text><path class="cls-3" d="M2.76,38.28A5.34,5.34,0,0,0,0,43v72.68a11.23,11.23,0,0,0,5.8,9.83L21,133.84V98.43L41.8,110v35.36l21,11.48V38.56L32.5,21.82Zm39,47.8L21,74.48V52.12L32.5,45.74l9.3,5.13Zm95-55-52.47-29a16.73,16.73,0,0,0-16.15,0L54.67,9.57l28.92,16V156.85l21-11.27V131l12.1,6.69,20.16-11.15a13.45,13.45,0,0,0,6.95-11.77V42.85A13.42,13.42,0,0,0,136.83,31.1Zm-14,86.09-18.25-10.1V37.16L122.8,47.25Z"/></g></g></svg>